<svg 
 xmlns="http://www.w3.org/2000/svg"
 xmlns:xlink="http://www.w3.org/1999/xlink"
 width="45px" height="46px">
<path fill-rule="evenodd" d="M41.084,43.516 L38.287,43.516 C37.772,43.516 37.355,43.099 37.355,42.584 L37.355,37.923 L29.085,37.923 L29.624,38.462 C29.988,38.826 29.988,39.416 29.624,39.781 L24.298,45.108 C24.123,45.282 23.886,45.380 23.639,45.380 C23.391,45.380 23.155,45.282 22.979,45.108 L15.795,37.923 L6.592,37.923 C5.047,37.923 3.795,36.671 3.795,35.126 L3.795,25.923 L0.340,22.467 C-0.024,22.104 -0.024,21.513 0.340,21.149 L3.795,17.694 L3.795,10.889 C3.795,9.344 5.047,8.092 6.592,8.092 L28.442,8.092 L35.093,1.441 C36.183,0.401 37.898,0.401 38.988,1.441 L40.277,2.730 C41.353,3.805 41.353,5.549 40.278,6.624 C40.278,6.625 40.277,6.625 40.277,6.626 L38.811,8.092 L41.084,8.092 C43.144,8.092 44.813,9.761 44.813,11.821 L44.813,39.787 C44.813,41.847 43.144,43.516 41.084,43.516 ZM5.660,35.126 C5.660,35.641 6.077,36.058 6.592,36.058 L13.930,36.058 L5.660,27.788 L5.660,35.126 ZM2.317,21.808 L23.639,43.130 L27.647,39.121 L25.104,36.578 L23.099,38.584 L21.780,37.266 L23.786,35.260 L21.374,32.848 L19.368,34.854 L18.050,33.535 L20.055,31.529 L17.646,29.120 L15.641,31.124 L14.323,29.806 L16.327,27.802 L13.917,25.391 L11.913,27.396 L10.594,26.077 L12.598,24.073 L10.187,21.661 L8.181,23.667 L6.863,22.348 L8.868,20.343 L6.325,17.800 L2.317,21.808 ZM22.895,16.276 L25.442,18.823 L35.722,8.544 L33.175,5.996 L22.895,16.276 ZM21.986,18.003 L21.120,20.601 L23.717,19.734 L21.986,18.003 ZM38.959,5.306 C39.307,4.959 39.308,4.395 38.960,4.047 C38.960,4.047 38.960,4.047 38.959,4.047 L37.670,2.760 C37.319,2.423 36.764,2.423 36.412,2.760 L34.493,4.678 L37.040,7.225 L38.959,5.306 ZM42.948,11.821 C42.948,10.791 42.114,9.956 41.084,9.956 L36.946,9.956 L26.101,20.801 C25.997,20.905 25.867,20.972 25.729,21.017 L25.733,21.029 L25.393,21.143 L33.626,21.143 L33.626,23.007 L19.643,23.007 L19.643,23.007 C19.643,23.007 19.643,23.007 19.643,23.007 C19.128,23.008 18.711,22.590 18.711,22.075 C18.711,21.975 18.727,21.876 18.758,21.781 L20.692,15.981 L20.701,15.985 C20.745,15.851 20.811,15.723 20.917,15.617 L26.578,9.956 L6.592,9.956 C6.077,9.956 5.660,10.374 5.660,10.889 L5.660,15.829 L5.666,15.823 C6.030,15.459 6.621,15.459 6.984,15.823 L27.220,36.058 L41.084,36.058 C41.767,36.058 42.398,36.255 42.948,36.575 L42.948,11.821 ZM41.084,37.923 L39.220,37.923 L39.220,41.652 L41.084,41.652 C42.114,41.652 42.948,40.817 42.948,39.787 C42.948,38.757 42.114,37.923 41.084,37.923 ZM39.220,21.143 L41.084,21.143 L41.084,23.007 L39.220,23.007 L39.220,21.143 ZM35.491,21.143 L37.355,21.143 L37.355,23.007 L35.491,23.007 L35.491,21.143 Z"/>
</svg>