<svg 
 xmlns="http://www.w3.org/2000/svg"
 xmlns:xlink="http://www.w3.org/1999/xlink"
 width="54px" height="51px">
<path fill-rule="evenodd" d="M50.296,18.758 C48.403,18.758 46.868,17.224 46.868,15.331 C46.868,13.437 48.403,11.903 50.296,11.903 C52.189,11.903 53.724,13.437 53.724,15.331 C53.724,17.224 52.189,18.758 50.296,18.758 ZM50.296,13.617 C49.349,13.617 48.582,14.384 48.582,15.331 C48.582,16.277 49.349,17.044 50.296,17.044 C51.243,17.044 52.010,16.277 52.010,15.331 C52.010,14.384 51.243,13.617 50.296,13.617 ZM45.834,30.880 C45.852,30.898 45.871,30.917 45.889,30.935 C47.210,32.287 47.186,34.454 45.834,35.775 C44.482,37.097 42.315,37.072 40.993,35.720 C40.198,36.900 38.868,37.607 37.445,37.609 C35.078,37.610 33.158,35.693 33.157,33.326 L34.871,33.326 C34.871,34.746 36.022,35.897 37.442,35.897 C38.861,35.897 40.012,34.746 40.012,33.326 L41.726,33.326 C41.726,34.273 42.494,35.041 43.440,35.041 C44.387,35.041 45.154,34.273 45.154,33.326 C45.154,32.380 44.387,31.613 43.440,31.613 L43.440,29.898 C44.860,29.898 46.011,28.748 46.011,27.328 C46.011,25.908 44.860,24.757 43.440,24.757 L43.440,23.043 C45.805,23.046 47.722,24.963 47.725,27.328 C47.724,28.753 47.016,30.084 45.834,30.880 ZM43.440,21.329 C42.021,21.329 40.870,20.178 40.870,18.758 C40.870,17.338 42.021,16.187 43.440,16.187 C44.860,16.187 46.011,17.338 46.011,18.758 C46.011,20.178 44.860,21.329 43.440,21.329 ZM43.440,17.902 C42.967,17.902 42.583,18.285 42.583,18.758 C42.583,19.232 42.967,19.615 43.440,19.615 C43.913,19.615 44.297,19.232 44.297,18.758 C44.297,18.285 43.913,17.902 43.440,17.902 ZM35.728,13.617 C34.308,13.617 33.157,14.767 33.157,16.187 L31.443,16.187 C31.443,13.821 29.525,11.903 27.158,11.903 C24.792,11.903 22.873,13.821 22.873,16.187 L21.159,16.187 C21.159,14.767 20.008,13.617 18.589,13.617 C17.169,13.617 16.018,14.767 16.018,16.187 L14.304,16.187 C14.298,14.920 14.857,13.715 15.828,12.900 C17.633,11.386 20.324,11.622 21.838,13.427 C22.408,12.325 23.305,11.428 24.407,10.859 C27.345,9.339 30.959,10.489 32.478,13.427 C33.293,12.456 34.497,11.897 35.766,11.903 C38.121,11.913 40.023,13.831 40.012,16.187 L38.299,16.187 C38.299,14.767 37.148,13.617 35.728,13.617 ZM35.728,9.332 C33.363,9.329 31.446,7.412 31.443,5.047 C31.443,2.680 33.361,0.762 35.728,0.762 C38.094,0.762 40.012,2.680 40.012,5.047 C40.012,7.413 38.094,9.332 35.728,9.332 ZM35.728,2.476 C34.308,2.476 33.157,3.627 33.157,5.047 C33.157,6.467 34.308,7.618 35.728,7.618 C37.148,7.618 38.299,6.467 38.299,5.047 C38.299,3.627 37.148,2.476 35.728,2.476 ZM20.302,10.189 C18.883,10.189 17.732,9.038 17.732,7.618 C17.732,6.198 18.883,5.047 20.302,5.047 C21.722,5.047 22.873,6.198 22.873,7.618 C22.873,9.038 21.722,10.189 20.302,10.189 ZM20.302,6.761 C19.829,6.761 19.445,7.145 19.445,7.618 C19.445,8.091 19.829,8.475 20.302,8.475 C20.776,8.475 21.159,8.091 21.159,7.618 C21.159,7.145 20.776,6.761 20.302,6.761 ZM12.590,36.754 C13.536,36.754 14.304,35.987 14.304,35.041 L16.018,35.041 C16.018,36.460 17.169,37.611 18.589,37.611 C20.008,37.611 21.159,36.460 21.159,35.041 L22.873,35.041 C22.869,36.458 22.165,37.781 20.991,38.576 C19.032,39.903 16.368,39.390 15.041,37.431 C14.960,37.514 14.876,37.594 14.787,37.669 C13.349,38.892 11.192,38.716 9.970,37.278 C8.748,35.839 8.923,33.682 10.362,32.460 C8.557,31.377 7.453,29.426 7.453,27.321 C7.454,24.011 10.137,21.329 13.447,21.329 L13.447,23.043 C11.080,23.043 9.162,24.962 9.162,27.328 C9.162,29.694 11.080,31.613 13.447,31.613 L13.447,33.326 C13.160,33.324 12.873,33.301 12.590,33.258 L12.590,33.326 C11.643,33.326 10.876,34.094 10.876,35.041 C10.876,35.987 11.643,36.754 12.590,36.754 ZM10.019,20.472 C8.599,20.472 7.448,19.321 7.448,17.902 C7.448,16.482 8.599,15.331 10.019,15.331 C11.439,15.331 12.590,16.482 12.590,17.902 C12.590,19.321 11.439,20.472 10.019,20.472 ZM10.019,17.044 C9.546,17.044 9.162,17.428 9.162,17.902 C9.162,18.374 9.546,18.758 10.019,18.758 C10.492,18.758 10.876,18.374 10.876,17.902 C10.876,17.428 10.492,17.044 10.019,17.044 ZM4.020,36.754 C2.127,36.754 0.592,35.220 0.592,33.326 C0.592,31.433 2.127,29.898 4.020,29.898 C5.913,29.898 7.448,31.433 7.448,33.326 C7.448,35.220 5.913,36.754 4.020,36.754 ZM4.020,31.613 C3.074,31.613 2.306,32.380 2.306,33.326 C2.306,34.273 3.074,35.041 4.020,35.041 C4.967,35.041 5.734,34.273 5.734,33.326 C5.734,32.380 4.967,31.613 4.020,31.613 ZM16.018,29.898 C15.544,29.898 15.161,29.515 15.161,29.042 L15.161,20.472 C15.161,19.999 15.544,19.615 16.018,19.615 L38.299,19.615 C38.772,19.615 39.156,19.999 39.156,20.472 L39.156,29.042 C39.156,29.515 38.772,29.898 38.299,29.898 L32.655,29.898 L29.729,32.825 L29.729,47.895 C29.729,49.315 28.578,50.466 27.158,50.466 C25.738,50.466 24.587,49.315 24.587,47.895 L24.587,32.825 L21.662,29.898 L16.018,29.898 ZM16.875,28.185 L18.589,28.185 L18.589,24.757 L16.875,24.757 L16.875,28.185 ZM37.442,21.329 L16.875,21.329 L16.875,23.043 L37.442,23.043 L37.442,21.329 ZM37.442,28.185 L37.442,24.757 L20.302,24.757 L20.302,28.185 L37.442,28.185 ZM27.158,48.752 C27.631,48.752 28.015,48.368 28.015,47.895 C28.015,47.422 27.631,47.038 27.158,47.038 C26.685,47.038 26.301,47.422 26.301,47.895 C26.301,48.368 26.685,48.752 27.158,48.752 ZM26.301,45.482 C26.853,45.271 27.463,45.271 28.015,45.482 L28.015,33.326 L26.301,33.326 L26.301,45.482 ZM25.799,31.613 L28.517,31.613 L30.231,29.898 L24.085,29.898 L25.799,31.613 ZM34.616,40.433 L33.404,41.645 L31.690,39.931 L32.902,38.719 L34.616,40.433 ZM34.623,43.360 L32.909,45.073 L31.697,43.861 L33.411,42.147 L34.623,43.360 ZM35.125,40.433 L36.839,38.720 L38.051,39.932 L36.337,41.645 L35.125,40.433 ZM38.048,43.861 L36.836,45.074 L35.122,43.360 L36.335,42.148 L38.048,43.861 Z"/>
</svg>