<svg 
 xmlns="http://www.w3.org/2000/svg"
 xmlns:xlink="http://www.w3.org/1999/xlink"
 width="48px" height="48px">
<path fill-rule="evenodd" d="M27.542,25.071 L35.521,25.071 C37.017,25.071 38.234,26.288 38.234,27.784 L38.234,35.763 C38.234,37.259 37.017,38.476 35.521,38.476 L27.542,38.476 C26.047,38.476 24.829,37.259 24.829,35.763 L24.829,27.784 C24.829,26.288 26.047,25.071 27.542,25.071 ZM26.561,35.763 C26.561,36.304 27.001,36.745 27.542,36.745 L35.521,36.745 C36.062,36.745 36.502,36.304 36.502,35.763 L36.502,27.784 C36.502,27.243 36.062,26.803 35.521,26.803 L27.542,26.803 C27.001,26.803 26.561,27.243 26.561,27.784 L26.561,35.763 ZM24.829,12.526 C24.829,11.030 26.047,9.812 27.542,9.812 L35.521,9.812 C37.017,9.812 38.234,11.030 38.234,12.526 L38.234,13.921 C38.234,14.399 37.847,14.787 37.368,14.787 C36.890,14.787 36.502,14.399 36.502,13.921 L36.502,12.526 C36.502,11.984 36.062,11.544 35.521,11.544 L27.542,11.544 C27.001,11.544 26.561,11.984 26.561,12.526 L26.561,20.504 C26.561,21.045 27.001,21.485 27.542,21.485 L35.521,21.485 C36.062,21.485 36.502,21.045 36.502,20.504 L36.502,17.055 C36.502,16.576 36.890,16.189 37.368,16.189 C37.847,16.189 38.234,16.576 38.234,17.055 L38.234,20.504 C38.234,22.000 37.017,23.217 35.521,23.217 L27.542,23.217 C26.047,23.217 24.829,22.000 24.829,20.504 L24.829,12.526 ZM12.208,25.071 L20.186,25.071 C21.682,25.071 22.899,26.288 22.899,27.784 L22.899,35.763 C22.899,37.259 21.682,38.476 20.186,38.476 L12.208,38.476 C10.711,38.476 9.494,37.259 9.494,35.763 L9.494,27.784 C9.494,26.288 10.711,25.071 12.208,25.071 ZM11.226,35.763 C11.226,36.304 11.666,36.745 12.208,36.745 L20.186,36.745 C20.727,36.745 21.168,36.304 21.168,35.763 L21.168,27.784 C21.168,27.243 20.727,26.803 20.186,26.803 L12.208,26.803 C11.666,26.803 11.226,27.243 11.226,27.784 L11.226,35.763 ZM9.494,12.526 C9.494,11.030 10.711,9.812 12.208,9.812 L20.186,9.812 C21.682,9.812 22.899,11.030 22.899,12.526 L22.899,20.504 C22.899,22.000 21.682,23.217 20.186,23.217 L12.208,23.217 C10.711,23.217 9.494,22.000 9.494,20.504 L9.494,12.526 ZM11.226,20.504 C11.226,21.045 11.666,21.485 12.208,21.485 L20.186,21.485 C20.727,21.485 21.168,21.045 21.168,20.504 L21.168,12.526 C21.168,11.984 20.727,11.544 20.186,11.544 L12.208,11.544 C11.666,11.544 11.226,11.984 11.226,12.526 L11.226,20.504 ZM41.545,47.629 L6.183,47.629 C2.983,47.629 0.380,45.025 0.380,41.824 L0.380,39.891 C0.380,39.413 0.767,39.026 1.246,39.026 C1.724,39.026 2.111,39.413 2.111,39.891 L2.111,41.824 C2.111,44.070 3.938,45.897 6.183,45.897 L41.545,45.897 C43.790,45.897 45.617,44.070 45.617,41.824 L45.617,6.463 C45.617,4.218 43.790,2.391 41.545,2.391 L6.183,2.391 C3.938,2.391 2.111,4.218 2.111,6.463 L2.111,36.366 C2.111,36.844 1.724,37.231 1.246,37.231 C0.767,37.231 0.380,36.844 0.380,36.366 L0.380,6.463 C0.380,3.263 2.983,0.660 6.183,0.660 L41.545,0.660 C44.745,0.660 47.349,3.263 47.349,6.463 L47.349,41.824 C47.349,45.025 44.745,47.629 41.545,47.629 Z"/>
</svg>