<svg 
 xmlns="http://www.w3.org/2000/svg"
 xmlns:xlink="http://www.w3.org/1999/xlink"
 width="45px" height="40px">
<path fill-rule="evenodd" d="M43.228,39.443 L0.971,39.443 C0.511,39.443 0.138,39.069 0.138,38.609 L0.138,32.480 C0.138,32.402 0.148,32.324 0.170,32.248 L7.539,6.588 C7.642,6.232 7.968,5.986 8.340,5.986 L17.513,5.986 L17.513,0.983 C17.513,0.522 17.887,0.149 18.347,0.149 C18.808,0.149 19.181,0.522 19.181,0.983 L19.181,2.651 L25.019,2.651 L25.019,0.983 C25.019,0.522 25.392,0.149 25.853,0.149 C26.313,0.149 26.687,0.522 26.687,0.983 L26.687,5.986 L35.859,5.986 C36.231,5.986 36.558,6.232 36.661,6.588 L44.029,32.248 C44.051,32.324 44.062,32.402 44.062,32.480 L44.062,38.609 C44.062,39.069 43.688,39.443 43.228,39.443 ZM18.347,14.325 C17.887,14.325 17.513,13.952 17.513,13.492 L17.513,10.990 L11.649,10.990 L7.838,30.270 L36.396,30.270 L33.382,10.990 L26.687,10.990 L26.687,13.492 C26.687,13.952 26.313,14.325 25.853,14.325 C25.392,14.325 25.019,13.952 25.019,13.492 L25.019,10.990 L19.181,10.990 L19.181,13.492 C19.181,13.952 18.808,14.325 18.347,14.325 ZM25.019,4.318 L19.181,4.318 L19.181,5.986 L25.019,5.986 L25.019,4.318 ZM25.019,7.654 L19.181,7.654 L19.181,9.322 L25.019,9.322 L25.019,7.654 ZM42.394,32.598 L35.233,7.654 L26.687,7.654 L26.687,9.322 L34.082,9.322 C34.487,9.322 34.833,9.612 34.903,10.010 L38.212,30.958 C38.255,31.202 38.188,31.451 38.030,31.640 C37.871,31.828 37.637,31.937 37.391,31.937 L6.809,31.937 C6.557,31.937 6.320,31.824 6.161,31.628 C6.003,31.433 5.942,31.177 5.994,30.930 L10.158,9.983 C10.240,9.597 10.580,9.322 10.974,9.322 L17.513,9.322 L17.513,7.654 L8.967,7.654 L1.806,32.598 L1.806,37.775 L42.394,37.775 L42.394,32.598 Z"/>
</svg>