<svg 
 xmlns="http://www.w3.org/2000/svg"
 xmlns:xlink="http://www.w3.org/1999/xlink"
 width="16px" height="16px">
<path fill-rule="evenodd"  fill="rgb(255, 164, 37)"
 d="M12.878,3.022 L8.187,3.022 L8.187,2.444 C8.187,1.464 7.390,0.667 6.410,0.667 C6.079,0.667 5.811,0.935 5.811,1.266 C5.811,1.596 6.079,1.864 6.410,1.864 C6.729,1.864 6.989,2.124 6.989,2.444 L6.989,3.022 L4.653,3.022 L4.653,2.444 C4.653,1.464 3.856,0.667 2.876,0.667 C2.545,0.667 2.277,0.935 2.277,1.266 C2.277,1.596 2.545,1.864 2.876,1.864 C3.195,1.864 3.455,2.124 3.455,2.444 L3.455,3.022 C1.826,3.022 0.500,4.348 0.500,5.978 L0.500,13.045 C0.500,14.674 1.826,16.000 3.455,16.000 L12.878,16.000 C14.508,16.000 15.833,14.674 15.833,13.045 C15.833,12.757 15.833,6.266 15.833,5.978 C15.833,4.348 14.508,3.022 12.878,3.022 ZM6.989,4.221 L6.989,5.978 L4.653,5.978 L4.653,4.221 L6.989,4.221 ZM1.698,5.978 C1.698,5.009 2.486,4.220 3.455,4.220 L3.455,8.333 C3.455,8.664 3.723,8.932 4.054,8.932 C4.385,8.932 4.653,8.664 4.653,8.333 L4.653,7.175 L6.989,7.175 L6.989,8.333 C6.989,8.664 7.257,8.932 7.588,8.932 C7.919,8.932 8.187,8.664 8.187,8.333 L8.187,4.221 L12.878,4.221 C13.847,4.221 14.635,5.009 14.635,5.978 L14.635,8.333 C14.635,9.302 13.847,10.090 12.878,10.090 L3.455,10.090 C2.486,10.090 1.698,9.302 1.698,8.333 L1.698,5.978 ZM12.878,14.802 L3.455,14.802 C2.486,14.802 1.698,14.014 1.698,13.045 L1.698,10.708 C2.189,11.072 2.797,11.288 3.455,11.288 L12.878,11.288 C13.536,11.288 14.144,11.072 14.635,10.708 L14.635,13.045 C14.635,14.014 13.847,14.802 12.878,14.802 Z"/>
</svg>