<?xml version="1.0" encoding="utf-8"?><svg viewBox="0 0 54 51" xmlns="http://www.w3.org/2000/svg" xmlns:xlink="http://www.w3.org/1999/xlink"><style>:root>svg{display:none}:root>svg:target{display:block}</style><svg viewBox="0 0 45 46" id="ic_service1" xmlns="http://www.w3.org/2000/svg"><path fill-rule="evenodd" d="M41.084 43.516h-2.797a.932.932 0 0 1-.932-.932v-4.661h-8.27l.539.539a.933.933 0 0 1 0 1.319l-5.326 5.327a.935.935 0 0 1-1.319 0l-7.184-7.185H6.592a2.797 2.797 0 0 1-2.797-2.797v-9.203L.34 22.467a.932.932 0 0 1 0-1.318l3.455-3.455v-6.805a2.797 2.797 0 0 1 2.797-2.797h21.85l6.651-6.651a2.821 2.821 0 0 1 3.895 0l1.289 1.289a2.753 2.753 0 0 1 .001 3.894l-.001.002-1.466 1.466h2.273a3.728 3.728 0 0 1 3.729 3.729v27.966a3.728 3.728 0 0 1-3.729 3.729zM5.66 35.126c0 .515.417.932.932.932h7.338l-8.27-8.27v7.338zM2.317 21.808L23.639 43.13l4.008-4.009-2.543-2.543-2.005 2.006-1.319-1.318 2.006-2.006-2.412-2.412-2.006 2.006-1.318-1.319 2.005-2.006-2.409-2.409-2.005 2.004-1.318-1.318 2.004-2.004-2.41-2.411-2.004 2.005-1.319-1.319 2.004-2.004-2.411-2.412-2.006 2.006-1.318-1.319 2.005-2.005L6.325 17.8l-4.008 4.008zm20.578-5.532l2.547 2.547 10.28-10.279-2.547-2.548-10.28 10.28zm-.909 1.727l-.866 2.598 2.597-.867-1.731-1.731zM38.959 5.306a.89.89 0 0 0 .001-1.259h-.001L37.67 2.76a.909.909 0 0 0-1.258 0l-1.919 1.918 2.547 2.547 1.919-1.919zm3.989 6.515c0-1.03-.834-1.865-1.864-1.865h-4.138L26.101 20.801a.919.919 0 0 1-.372.216l.004.012-.34.114h8.233v1.864H19.643a.931.931 0 0 1-.885-1.226l1.934-5.8.009.004a.91.91 0 0 1 .216-.368l5.661-5.661H6.592a.933.933 0 0 0-.932.933v4.94l.006-.006a.932.932 0 0 1 1.318 0L27.22 36.058h13.864a3.69 3.69 0 0 1 1.864.517V11.821zm-1.864 26.102H39.22v3.729h1.864a1.864 1.864 0 0 0 0-3.729zm-1.864-16.78h1.864v1.864H39.22v-1.864zm-3.729 0h1.864v1.864h-1.864v-1.864z"/></svg><svg viewBox="0 0 45 40" id="ic_service2" xmlns="http://www.w3.org/2000/svg"><path fill-rule="evenodd" d="M43.228 39.443H.971a.834.834 0 0 1-.833-.834V32.48c0-.078.01-.156.032-.232l7.369-25.66a.834.834 0 0 1 .801-.602h9.173V.983a.834.834 0 0 1 1.668 0v1.668h5.838V.983a.833.833 0 1 1 1.668 0v5.003h9.172c.372 0 .699.246.802.602l7.368 25.66a.834.834 0 0 1 .033.232v6.129c0 .46-.374.834-.834.834zM18.347 14.325a.834.834 0 0 1-.834-.833V10.99h-5.864L7.838 30.27h28.558l-3.014-19.28h-6.695v2.502a.834.834 0 0 1-1.668 0V10.99h-5.838v2.502c0 .46-.373.833-.834.833zm6.672-10.007h-5.838v1.668h5.838V4.318zm0 3.336h-5.838v1.668h5.838V7.654zm17.375 24.944L35.233 7.654h-8.546v1.668h7.395c.405 0 .751.29.821.688l3.309 20.948a.836.836 0 0 1-.182.682.838.838 0 0 1-.639.297H6.809a.833.833 0 0 1-.815-1.007l4.164-20.947a.834.834 0 0 1 .816-.661h6.539V7.654H8.967L1.806 32.598v5.177h40.588v-5.177z"/></svg><svg viewBox="0 0 44 43" id="ic_service3" xmlns="http://www.w3.org/2000/svg"><path fill-rule="evenodd" d="M42.641 42.875H1.544a.758.758 0 0 1-.758-.758V36.07a.758.758 0 0 1 1.516 0v5.289h19.032v-7.462a.759.759 0 0 1 1.384-.428 2.87 2.87 0 0 0 2.364 1.258 2.882 2.882 0 0 0 2.874-2.879 2.882 2.882 0 0 0-2.874-2.879 2.872 2.872 0 0 0-2.364 1.257.758.758 0 0 1-1.384-.427v-7.278h-5.651a4.38 4.38 0 0 1 .524 2.032c0 .334-.045.655-.115.968-.348 2.1-2.163 3.71-4.36 3.71A4.437 4.437 0 0 1 7.3 24.799c0-.814.224-1.599.631-2.278H2.302v11.023a.758.758 0 0 1-1.516 0V22.248a.748.748 0 0 1-.187-.485V8.756a.757.757 0 0 1 1.515 0v12.065h7.608c.33 0 .622.214.722.529a.752.752 0 0 1-.046.552.75.75 0 0 1-.309.487c-.37.254-.663.589-.879.967a2.865 2.865 0 0 0-.276 1.197 2.882 2.882 0 0 0 2.879 2.879 2.877 2.877 0 0 0 2.794-2.218c.02-.136.042-.273.042-.415a2.92 2.92 0 0 0-1.273-2.41.757.757 0 0 1-.297-.849.737.737 0 0 1 .125-.235.753.753 0 0 1 .7-.484h7.431v-5.603a4.459 4.459 0 0 1-2.232.602 4.438 4.438 0 0 1-4.432-4.433c0-.63.137-1.227.375-1.77a4.398 4.398 0 0 1 4.053-2.701c.798 0 1.568.218 2.236.616V1.769H2.114V6.23a.758.758 0 1 1-1.515 0V1.011c0-.418.339-.758.757-.758h20.763c.053 0 .099.02.148.03h20.374c.419 0 .758.34.758.758v8.092a.758.758 0 0 1-1.515 0V1.799H22.877v7.475a.751.751 0 0 1-1.029.703c-.042-.014-.079-.04-.118-.061-.021-.013-.044-.02-.063-.034a.737.737 0 0 1-.2-.194 2.897 2.897 0 0 0-.425-.484 2.918 2.918 0 0 0-4.6 1.001 2.864 2.864 0 0 0-.222 1.105 2.883 2.883 0 0 0 2.879 2.879c.945 0 1.83-.47 2.368-1.257a.75.75 0 1 1 1.366.318c.027.08.044.163.044.25v7.321h5.703a4.384 4.384 0 0 1-.602-2.217l.001-.016-.001-.013a4.399 4.399 0 0 1 4.394-4.394 4.399 4.399 0 0 1 4.394 4.394V18.604c0 .79-.213 1.553-.602 2.217h5.719v-9.163a.758.758 0 0 1 1.516 0v30.459a.758.758 0 0 1-.758.758zm-.758-20.538h-7.462a.759.759 0 0 1-.427-1.384 2.879 2.879 0 0 0 1.256-2.365 2.88 2.88 0 0 0-2.878-2.862 2.881 2.881 0 0 0-2.878 2.862c.004.946.473 1.83 1.257 2.365a.757.757 0 0 1-.428 1.384H22.85v5.72a4.421 4.421 0 0 1 2.227-.603H25.086a4.399 4.399 0 0 1 4.394 4.394 4.399 4.399 0 0 1-4.394 4.394H25.077c-.793 0-1.56-.214-2.227-.603v5.72h19.033V22.337z"/></svg><svg viewBox="0 0 50 49" id="ic_service4" xmlns="http://www.w3.org/2000/svg"><path fill-rule="evenodd" d="M49.102 24.457c0 6.491-2.528 12.594-7.118 17.185A24.147 24.147 0 0 1 24.8 48.759c-1.612 0-3.225-.159-4.792-.472a.95.95 0 0 1 .373-1.862c1.445.289 2.932.436 4.419.436 12.353 0 22.403-10.05 22.403-22.404 0-4.987-1.678-9.855-4.735-13.774a3.96 3.96 0 0 1-1.915.489 3.956 3.956 0 0 1-2.819-1.168 3.96 3.96 0 0 1-1.168-2.819c0-1.065.415-2.067 1.168-2.82a3.964 3.964 0 0 1 2.819-1.167c1.065 0 2.067.415 2.82 1.167a3.994 3.994 0 0 1 .498 5.03 24.351 24.351 0 0 1 5.231 15.062zM42.03 5.708a2.076 2.076 0 0 0-1.477-.612c-.557 0-1.082.218-1.476.612a2.074 2.074 0 0 0-.612 1.477c0 .558.217 1.082.612 1.477.394.394.918.611 1.476.611.558 0 1.083-.217 1.477-.611a2.092 2.092 0 0 0 0-2.954zm-2.642 9.298a.95.95 0 0 1-.278.672l-1.291 1.291a14.855 14.855 0 0 1 1.476 3.562h1.834a.95.95 0 0 1 .949.95v5.935c0 .525-.424.95-.949.95h-1.833a14.882 14.882 0 0 1-1.477 3.563l1.298 1.297a.95.95 0 0 1 0 1.343l-4.195 4.198a.947.947 0 0 1-1.343.001l-1.299-1.3a14.882 14.882 0 0 1-3.563 1.477v1.84a.95.95 0 0 1-.95.95h-5.935a.95.95 0 0 1-.95-.95v-1.84a14.882 14.882 0 0 1-3.563-1.477l-1.299 1.3a.95.95 0 0 1-1.342-.001l-4.196-4.198a.95.95 0 0 1 0-1.343l1.298-1.297a14.882 14.882 0 0 1-1.477-3.563H8.47a.948.948 0 0 1-.949-.95l.003-5.936a.95.95 0 0 1 .949-.949h1.83a14.858 14.858 0 0 1 1.477-3.562l-1.291-1.291a.95.95 0 0 1 .001-1.343l4.198-4.196a.95.95 0 0 1 1.342.001l1.29 1.289a14.815 14.815 0 0 1 3.562-1.476V8.129a.95.95 0 0 1 .95-.949h5.935a.95.95 0 0 1 .95.949v1.824c1.248.335 2.441.83 3.563 1.476l1.289-1.289a.95.95 0 0 1 1.342-.001l4.199 4.196a.95.95 0 0 1 .278.671zm-3.44 1.148l1.148-1.147-2.856-2.854-1.147 1.147a.949.949 0 0 1-1.186.126 12.999 12.999 0 0 0-4.339-1.799.947.947 0 0 1-.75-.928v-1.62h-4.037V10.7a.95.95 0 0 1-.75.928 12.968 12.968 0 0 0-4.339 1.798.95.95 0 0 1-1.187-.126l-1.146-1.147-2.856 2.854 1.147 1.147c.317.317.37.811.127 1.186a13.021 13.021 0 0 0-1.799 4.34.95.95 0 0 1-.928.75H9.422l-.002 4.037h1.63a.95.95 0 0 1 .928.75 12.999 12.999 0 0 0 1.799 4.339.949.949 0 0 1-.127 1.187l-1.154 1.155 2.853 2.856 1.156-1.156a.949.949 0 0 1 1.187-.126 13.005 13.005 0 0 0 4.339 1.798.95.95 0 0 1 .75.928v1.638h4.037v-1.638c0-.448.312-.834.75-.928a13.026 13.026 0 0 0 4.339-1.798.949.949 0 0 1 1.187.126l1.156 1.155 2.853-2.856-1.155-1.154a.95.95 0 0 1-.126-1.187 13.008 13.008 0 0 0 1.799-4.339.95.95 0 0 1 .928-.75h1.631V22.43h-1.631a.948.948 0 0 1-.928-.75 13.021 13.021 0 0 0-1.799-4.34.95.95 0 0 1 .126-1.186zM24.8 32.302c-4.326 0-7.844-3.52-7.844-7.845 0-4.325 3.518-7.844 7.844-7.844 4.325 0 7.844 3.519 7.844 7.844s-3.519 7.845-7.844 7.845zm0-13.79a5.952 5.952 0 0 0-5.946 5.945 5.952 5.952 0 0 0 5.946 5.946 5.953 5.953 0 0 0 5.945-5.946 5.952 5.952 0 0 0-5.945-5.945zm8.741-14.767a.955.955 0 0 1-.95-.95.95.95 0 0 1 1.621-.671.956.956 0 0 1 .278.671c0 .25-.102.494-.278.672a.959.959 0 0 1-.671.278zm-4.28-1.247a22.55 22.55 0 0 0-4.461-.444c-12.354 0-22.404 10.05-22.404 22.403 0 4.987 1.678 9.856 4.735 13.775a3.952 3.952 0 0 1 1.915-.489 3.96 3.96 0 0 1 2.819 1.167 3.958 3.958 0 0 1 1.168 2.819 3.957 3.957 0 0 1-1.168 2.82 3.96 3.96 0 0 1-2.819 1.168 3.96 3.96 0 0 1-2.819-1.168 3.96 3.96 0 0 1-1.168-2.819c0-.799.234-1.563.668-2.212a24.35 24.35 0 0 1-5.23-15.061A24.143 24.143 0 0 1 7.615 7.273 24.144 24.144 0 0 1 24.8.155c1.628 0 3.255.162 4.837.482a.949.949 0 1 1-.376 1.861zM7.569 43.206c.395.395.919.612 1.477.612s1.082-.217 1.477-.612c.394-.394.612-.919.612-1.476 0-.558-.218-1.083-.612-1.477a2.073 2.073 0 0 0-1.477-.611c-.558 0-1.082.216-1.477.611a2.076 2.076 0 0 0-.611 1.477c0 .557.217 1.082.611 1.476zm8.531 1.98c.25 0 .495.102.671.278a.957.957 0 0 1 .278.672.956.956 0 0 1-.278.671.957.957 0 0 1-.671.278.959.959 0 0 1-.671-.278.959.959 0 0 1-.278-.671.96.96 0 0 1 .278-.672.959.959 0 0 1 .671-.278z"/></svg><svg viewBox="0 0 54 51" id="ic_service5" xmlns="http://www.w3.org/2000/svg"><path fill-rule="evenodd" d="M50.296 18.758a3.427 3.427 0 1 1-.001-6.855 3.427 3.427 0 0 1 .001 6.855zm0-5.141a1.714 1.714 0 1 0-.001 3.427 1.714 1.714 0 0 0 .001-3.427zM45.834 30.88l.055.055a3.423 3.423 0 1 1-4.896 4.785 4.285 4.285 0 0 1-7.836-2.394h1.714a2.57 2.57 0 1 0 5.141 0h1.714a1.715 1.715 0 1 0 1.714-1.713v-1.715a2.57 2.57 0 1 0 0-5.141v-1.714a4.29 4.29 0 0 1 4.285 4.285 4.285 4.285 0 0 1-1.891 3.552zm-2.394-9.551a2.57 2.57 0 1 1 .001-5.141 2.57 2.57 0 0 1-.001 5.141zm0-3.427a.857.857 0 1 0 0 1.713.857.857 0 0 0 0-1.713zm-7.712-4.285a2.57 2.57 0 0 0-2.571 2.57h-1.714a4.285 4.285 0 1 0-8.57 0h-1.714a2.57 2.57 0 1 0-5.141 0h-1.714a4.267 4.267 0 0 1 7.534-2.76 5.988 5.988 0 0 1 10.64 0 4.266 4.266 0 0 1 7.534 2.76h-1.713a2.57 2.57 0 0 0-2.571-2.57zm0-4.285a4.284 4.284 0 1 1-.001-8.571 4.284 4.284 0 0 1 .001 8.571zm0-6.856a2.57 2.57 0 1 0 0 5.142 2.57 2.57 0 0 0 0-5.142zm-15.426 7.713a2.57 2.57 0 1 1 .001-5.141 2.57 2.57 0 0 1-.001 5.141zm0-3.428a.857.857 0 1 0 0 1.715.857.857 0 0 0 0-1.715zM12.59 36.754c.946 0 1.714-.767 1.714-1.713h1.714a2.57 2.57 0 0 0 5.141 0h1.714a4.285 4.285 0 0 1-7.832 2.39 3.417 3.417 0 1 1-4.679-4.971 5.993 5.993 0 0 1 3.085-11.131v1.714a4.285 4.285 0 0 0 0 8.57v1.713a5.989 5.989 0 0 1-.857-.068v.068a1.714 1.714 0 0 0 0 3.428zm-2.571-16.282a2.57 2.57 0 1 1 0-5.141 2.57 2.57 0 0 1 0 5.141zm0-3.428a.858.858 0 1 0 .001 1.715.858.858 0 0 0-.001-1.715zM4.02 36.754a3.428 3.428 0 1 1 0-6.855 3.428 3.428 0 0 1 0 6.855zm0-5.141a1.714 1.714 0 1 0 0 3.428 1.714 1.714 0 0 0 0-3.428zm11.998-1.715a.856.856 0 0 1-.857-.856v-8.57c0-.473.383-.857.857-.857h22.281c.473 0 .857.384.857.857v8.57a.857.857 0 0 1-.857.856h-5.644l-2.926 2.927v15.07a2.57 2.57 0 1 1-5.142 0v-15.07l-2.925-2.927h-5.644zm.857-1.713h1.714v-3.428h-1.714v3.428zm20.567-6.856H16.875v1.714h20.567v-1.714zm0 6.856v-3.428h-17.14v3.428h17.14zM27.158 48.752a.857.857 0 1 0 0-1.715.857.857 0 0 0 0 1.715zm-.857-3.27a2.4 2.4 0 0 1 1.714 0V33.326h-1.714v12.156zm-.502-13.869h2.718l1.714-1.715h-6.146l1.714 1.715zm8.817 8.82l-1.212 1.212-1.714-1.714 1.212-1.212 1.714 1.714zm.007 2.927l-1.714 1.713-1.212-1.212 1.714-1.714 1.212 1.213zm.502-2.927l1.714-1.713 1.212 1.212-1.714 1.713-1.212-1.212zm2.923 3.428l-1.212 1.213-1.714-1.714 1.213-1.212 1.713 1.713z"/></svg><svg viewBox="0 0 48 48" id="ic_service6" xmlns="http://www.w3.org/2000/svg"><path fill-rule="evenodd" d="M27.542 25.071h7.979a2.716 2.716 0 0 1 2.713 2.713v7.979a2.716 2.716 0 0 1-2.713 2.713h-7.979a2.717 2.717 0 0 1-2.713-2.713v-7.979a2.717 2.717 0 0 1 2.713-2.713zm-.981 10.692c0 .541.44.982.981.982h7.979a.983.983 0 0 0 .981-.982v-7.979a.982.982 0 0 0-.981-.981h-7.979a.982.982 0 0 0-.981.981v7.979zm-1.732-23.237a2.718 2.718 0 0 1 2.713-2.714h7.979a2.717 2.717 0 0 1 2.713 2.714v1.395a.866.866 0 1 1-1.732 0v-1.395a.982.982 0 0 0-.981-.982h-7.979a.982.982 0 0 0-.981.982v7.978c0 .541.44.981.981.981h7.979c.541 0 .981-.44.981-.981v-3.449a.866.866 0 1 1 1.732 0v3.449a2.716 2.716 0 0 1-2.713 2.713h-7.979a2.717 2.717 0 0 1-2.713-2.713v-7.978zM12.208 25.071h7.978a2.716 2.716 0 0 1 2.713 2.713v7.979a2.716 2.716 0 0 1-2.713 2.713h-7.978a2.716 2.716 0 0 1-2.714-2.713v-7.979a2.716 2.716 0 0 1 2.714-2.713zm-.982 10.692c0 .541.44.982.982.982h7.978a.984.984 0 0 0 .982-.982v-7.979a.983.983 0 0 0-.982-.981h-7.978a.982.982 0 0 0-.982.981v7.979zM9.494 12.526a2.717 2.717 0 0 1 2.714-2.714h7.978a2.717 2.717 0 0 1 2.713 2.714v7.978a2.716 2.716 0 0 1-2.713 2.713h-7.978a2.716 2.716 0 0 1-2.714-2.713v-7.978zm1.732 7.978c0 .541.44.981.982.981h7.978c.541 0 .982-.44.982-.981v-7.978a.983.983 0 0 0-.982-.982h-7.978a.982.982 0 0 0-.982.982v7.978zm30.319 27.125H6.183A5.81 5.81 0 0 1 .38 41.824v-1.933a.865.865 0 1 1 1.731 0v1.933a4.077 4.077 0 0 0 4.072 4.073h35.362a4.077 4.077 0 0 0 4.072-4.073V6.463a4.077 4.077 0 0 0-4.072-4.072H6.183a4.077 4.077 0 0 0-4.072 4.072v29.903a.865.865 0 1 1-1.731 0V6.463A5.81 5.81 0 0 1 6.183.66h35.362a5.81 5.81 0 0 1 5.804 5.803v35.361a5.811 5.811 0 0 1-5.804 5.805z"/></svg></svg>